<svg width="93" height="59" viewBox="0 0 93 59" fill="none" xmlns="http://www.w3.org/2000/svg">
<path d="M47.0303 7.92802L44.746 5.37613L42.5172 7.97663C40.8674 9.90158 39.175 11.8212 37.4753 13.749C33.6136 18.129 29.7145 22.5514 26.1931 27.1752C21.0775 33.8919 16.2376 40.8458 11.4413 47.7369C9.87498 49.9874 8.31328 52.2312 6.74816 54.4579C6.13153 55.3348 5.54186 55.7121 5.17353 55.8389C4.8809 55.9395 4.64896 55.9245 4.35386 55.7467L4.35283 55.7461C4.00815 55.5385 3.84111 55.2561 3.79257 54.9476C3.74289 54.6319 3.79873 54.1236 4.24546 53.5268C5.68302 51.6064 7.11838 49.6861 8.55306 47.7667C15.8086 38.0597 23.0467 28.3762 30.4618 18.8302C32.9768 15.5928 35.6785 12.622 38.4685 9.55387C39.912 7.96655 41.3791 6.35319 42.8564 4.66345L42.858 4.66153C44.1798 3.14697 44.9696 2.99768 45.2405 3.00003C45.5022 3.00231 46.2739 3.15559 47.5405 4.68694L47.5405 4.68698C57.9116 17.2255 68.2924 29.756 78.6828 42.2783L78.6877 42.2841C80.4353 44.3795 82.2412 46.4153 84.013 48.4117L84.05 48.4533C84.4353 48.8875 84.819 49.3199 85.2008 49.7512C73.2792 36.7619 61.3864 23.7462 49.5228 10.7043L49.5185 10.6995C48.9957 10.1273 48.4834 9.55386 47.8242 8.81603C47.582 8.54492 47.32 8.25161 47.0303 7.92802ZM90.7809 54.8788C90.7809 54.8791 90.7778 54.8788 90.7715 54.877C90.7778 54.8777 90.7809 54.8786 90.7809 54.8788Z" fill="white" stroke="white" stroke-width="6"/>
</svg>
