<svg width="17" height="20" viewBox="0 0 17 20" fill="none" xmlns="http://www.w3.org/2000/svg">
<path d="M16.9247 11.5106C16.9384 13.0844 16.96 14.6579 16.962 16.2319C16.9629 16.9152 16.9085 17.598 16.9057 18.2817C16.9019 19.2488 16.1308 19.8375 15.2136 19.8574C13.2665 19.8998 11.3185 19.9399 9.37121 19.9315C7.26092 19.9224 5.15062 19.8657 3.04088 19.8103C2.51403 19.7869 1.98915 19.7331 1.46914 19.649C0.87042 19.5632 0.280712 18.8872 0.242205 18.2667C0.212633 17.7909 0.186855 17.3143 0.180055 16.8378C0.144948 14.4639 0.113696 12.09 0.0862854 9.71608C0.0558169 7.21306 0.0274288 4.70991 0.00112489 2.20662C-0.00104369 1.72685 0.131137 1.25519 0.383984 0.840538C0.488548 0.650469 0.645068 0.491014 0.836949 0.37901C1.02883 0.267007 1.24889 0.206656 1.4738 0.204409C2.24394 0.173164 3.01629 0.177112 3.78501 0.127905C6.32829 -0.0348119 8.87102 0.0967523 11.4141 0.111469C11.6682 0.106709 11.9207 0.15157 12.156 0.243176C12.3913 0.334783 12.6046 0.471248 12.7828 0.644267C13.6051 1.39068 14.4884 2.07606 15.3422 2.79145C15.657 3.0556 15.9482 3.34539 16.27 3.60071C16.6119 3.87188 16.7366 4.21498 16.7433 4.6223C16.765 5.93803 16.7902 7.25374 16.8186 8.56944C16.8386 9.54997 16.8603 10.5303 16.8836 11.5108L16.9247 11.5106ZM11.2006 1.08486C11.0371 1.06796 10.9303 1.04894 10.8231 1.04713C9.02465 1.01522 7.22618 0.98484 5.42776 0.955957C4.65747 0.944108 3.88701 0.939625 3.11663 0.935021C2.72524 0.932682 2.33273 0.921315 1.9426 0.943278C1.41955 0.972636 1.23169 1.11862 1.16329 1.61228C1.1073 2.07186 1.08104 2.53427 1.08462 2.99694C1.08114 3.42169 1.1315 3.84664 1.13506 4.27163C1.14502 5.45834 1.14431 6.64513 1.14534 7.83185C1.14818 11.0952 1.15143 14.3584 1.15507 17.6217C1.15483 17.8019 1.17967 17.9813 1.22891 18.1552C1.36207 18.6143 1.634 18.8236 2.12897 18.859C2.41204 18.8792 2.69662 18.8848 2.98055 18.8864C5.4148 18.9006 7.84903 18.9186 10.2833 18.9224C11.5817 18.9245 12.8802 18.9005 14.1786 18.8884C14.4623 18.8857 14.7465 18.8948 15.0294 18.88C15.5683 18.8519 15.8558 18.578 15.85 18.0752C15.8428 17.4569 15.8009 16.839 15.7895 16.2207C15.7779 15.5888 15.801 14.9562 15.7807 14.3248C15.7343 12.8811 15.6463 11.4384 15.6206 9.99457C15.5931 8.47298 15.6184 6.95058 15.6188 5.42854C15.616 5.34507 15.6087 5.26182 15.597 5.17906C14.7079 5.17906 13.8571 5.18503 13.0064 5.17544C12.7499 5.17541 12.494 5.14845 12.2436 5.0951C11.7162 4.97563 11.554 4.78461 11.5003 4.26492C11.4538 3.81601 11.422 3.36566 11.3797 2.91638C11.3227 2.31525 11.2623 1.71452 11.2006 1.08486ZM15.0863 4.09931L12.3268 1.71119L12.2615 1.75652C12.3937 2.57795 12.5259 3.39944 12.6614 4.24193L15.0863 4.09931Z" fill="#FAF3E3"/>
<path d="M7.72653 17.1602C6.87962 17.1801 5.55393 17.2177 4.22801 17.2392C3.79603 17.2516 3.36366 17.2344 2.93427 17.1876C2.45756 17.1293 2.34457 16.9626 2.34734 16.5158C2.36007 14.4773 2.36671 12.4389 2.38292 10.4004C2.38656 9.94935 2.42807 9.49871 2.4374 9.04761C2.44301 8.77659 2.57412 8.59214 2.83718 8.53403C3.21672 8.45003 3.60415 8.36195 3.9908 8.3489C5.95118 8.28233 7.91219 8.21894 9.8736 8.19561C11.1855 8.17999 12.4983 8.23335 13.8108 8.25599C13.8919 8.25735 13.9733 8.25916 14.0541 8.26565C14.6481 8.31297 14.6495 8.33358 14.8328 8.88052C15.0334 9.47901 15.088 10.0964 15.1121 10.7126C15.1993 12.6216 15.1279 14.5341 14.8986 16.4324C14.8503 16.8118 14.6896 16.9922 14.2892 17.0367C13.7797 17.1016 13.2671 17.1409 12.7533 17.1545C11.2375 17.1698 9.72162 17.1602 7.72653 17.1602ZM9.74281 13.6364C10.208 13.1847 10.7 12.7239 11.1707 12.2441C11.4893 11.9196 11.8396 11.8403 12.2689 12.0048C12.8143 12.2016 13.3137 12.499 13.7384 12.8802C13.8278 12.9632 13.9235 13.0398 14.0726 13.1676C14.1517 11.7438 14.2011 10.4087 14.1069 9.07584C14.0582 9.05901 14.0079 9.04678 13.9567 9.03946C12.9288 9.03712 11.9003 9.03267 10.8722 9.03652C8.49074 9.04527 6.1093 9.05727 3.72782 9.07252C3.49881 9.08618 3.27072 9.11139 3.0445 9.14799C3.0664 10.265 3.20003 11.3524 3.23229 12.4435C3.26392 13.5284 3.29191 14.6133 3.32322 15.7623C3.62305 15.3724 3.88762 15.033 4.14705 14.6902C4.89227 13.6909 5.69982 12.7355 6.56532 11.8289C6.8895 11.4943 7.1732 11.4549 7.56642 11.7112C7.75321 11.8389 7.92927 11.9802 8.09302 12.134C8.64414 12.6301 9.1894 13.1315 9.74281 13.6364ZM3.78309 16.4611C4.03176 16.4611 4.19355 16.4686 4.35437 16.4598C5.00101 16.4233 5.64676 16.3653 6.29387 16.3456C7.54886 16.3075 8.80449 16.2903 10.0598 16.2627C10.2106 16.2595 10.3611 16.2475 10.5626 16.2369C9.52023 14.8692 8.36708 13.6943 7.09247 12.5403L3.78309 16.4611ZM14.0037 16.202C14.0339 16.1439 14.0568 16.0826 14.0717 16.0193C14.0582 15.5438 14.048 15.0688 14.0181 14.5946C14.0013 14.4951 13.9494 14.4041 13.871 14.3364C13.5014 13.9983 13.1321 13.6582 12.7414 13.3429C12.4609 13.1199 12.1287 12.9643 11.7725 12.8888L10.1903 14.2483L11.7084 16.202H14.0037Z" fill="#FAF3E3"/>
<path d="M10.5577 10.9509C10.5581 11.2941 10.2241 11.5985 9.84317 11.602C9.46798 11.6056 9.08521 11.2942 9.09201 10.9912C9.09992 10.6516 9.50436 10.2778 9.86381 10.2786C10.0466 10.2875 10.2194 10.3614 10.3478 10.4859C10.4763 10.6104 10.5512 10.7763 10.5577 10.9509Z" fill="#FAF3E3"/>
</svg>
