<svg width="16" height="20" viewBox="0 0 16 20" fill="none" xmlns="http://www.w3.org/2000/svg">
<path d="M12.4318 2.79973C12.1984 2.18581 11.8726 1.48469 11.2233 0.938218C10.2474 0.116947 9.04829 -0.161096 7.55771 0.0881571C5.85759 0.372573 4.66833 1.41868 4.11862 3.11341C3.67304 4.47739 3.51086 5.91551 3.64171 7.34233C3.69336 7.90657 3.73642 8.48148 3.77806 9.03758C3.8267 9.68606 3.87693 10.3568 3.94123 11.0154C3.99725 11.5591 4.09352 12.0982 4.2293 12.6282C4.45058 13.5076 4.99985 14.1271 5.86188 14.4692C6.74551 14.8304 7.69193 15.02 8.64886 15.0274C9.15284 15.0275 9.65516 14.9709 10.1461 14.8588C11.521 14.5454 12.3837 13.7679 12.7103 12.5479C12.8367 12.1042 12.9175 11.6491 12.9513 11.1896C12.9992 10.3859 13.0245 9.56836 13.0492 8.777C13.0592 8.45475 13.0697 8.13251 13.0806 7.81034C13.0813 7.79338 13.0761 7.77665 13.0659 7.76296C13.0559 7.74919 13.0412 7.7392 13.0247 7.73453C13.0247 7.64311 13.0242 7.55161 13.0233 7.46011C13.0218 7.2127 13.0203 6.95671 13.0261 6.7059C13.0605 5.22001 12.8662 3.94235 12.4318 2.79973ZM11.6702 7.56952L11.6696 8.17759C11.6696 8.19284 11.6743 8.20772 11.683 8.22031C11.6918 8.23296 11.7041 8.24266 11.7186 8.24829C11.7012 8.53655 11.6847 8.82489 11.6692 9.11323C11.6262 9.88638 11.5818 10.6858 11.5111 11.4691C11.4775 11.841 11.3535 12.2158 11.2337 12.5781L11.2062 12.6614C11.0991 12.9871 10.8587 13.2353 10.4714 13.4215C9.82893 13.7305 9.09595 13.8499 8.29273 13.7769C7.68767 13.7216 7.07297 13.5696 6.49563 13.4186C5.92882 13.2705 5.5513 12.8691 5.40387 12.2582C5.30892 11.8953 5.24443 11.5253 5.21105 11.152C5.0878 9.38336 4.9604 7.48447 4.86372 5.58239C4.83389 5.06923 4.8658 4.55439 4.95881 4.04859C5.26082 2.47705 6.48727 1.35558 8.01075 1.25772C8.11285 1.2512 8.21638 1.24796 8.32058 1.24796C8.63521 1.24806 8.94914 1.27687 9.25836 1.33399C10.1296 1.49596 10.7233 1.99852 10.975 2.78714C11.2341 3.59694 11.4407 4.4402 11.6301 5.23437C11.6685 5.43799 11.6818 5.64538 11.6696 5.85212C11.6686 5.91875 11.6674 5.9848 11.6679 6.05046C11.6714 6.55666 11.6708 7.0716 11.6702 7.56952Z" fill="#FAF3E3"/>
<path d="M4.22052 15.6014C4.91585 16.156 5.72465 16.4434 6.49513 16.6713C6.86956 16.7824 7.2574 16.8649 7.63251 16.9452C7.78211 16.9772 7.9315 17.0092 8.08028 17.0429V18.6516L8.05701 18.6553C8.01695 18.6629 7.97648 18.6682 7.93579 18.6712L7.88075 18.6739C7.0136 18.7169 6.117 18.7614 5.23502 18.8017C5.00221 18.8123 4.75578 18.8633 4.69396 19.1605C4.63862 19.427 4.78499 19.6458 5.076 19.7311C5.26513 19.7842 5.46102 19.8104 5.65772 19.809H5.66698C6.13628 19.8072 6.61319 19.8011 7.07443 19.7951C7.65178 19.7877 8.24901 19.7803 8.83539 19.7807C9.4796 19.7814 10.1348 19.7916 10.7686 19.8015C11.1676 19.8077 11.5662 19.8139 11.965 19.818C11.9786 19.818 11.9923 19.818 12.0063 19.818C12.1411 19.8213 12.2757 19.8069 12.4064 19.775C12.5247 19.7421 12.628 19.6706 12.6995 19.5723C12.7709 19.474 12.8063 19.3548 12.7999 19.2341C12.772 18.977 12.6336 18.8036 12.4101 18.7456C12.2547 18.7075 12.0951 18.688 11.9348 18.6877C11.452 18.6818 10.9691 18.679 10.4862 18.6762C10.17 18.6744 9.854 18.6722 9.53815 18.6698C9.4668 18.6692 9.39512 18.6624 9.31147 18.655L9.24454 18.6488L9.17594 17.0854L9.48299 17.0543C9.72804 17.0298 9.95083 17.0074 10.1736 16.9834C11.7208 16.8167 12.9852 16.0611 13.9314 14.7375C14.6359 13.7521 14.9775 12.5865 15.0382 10.9581C15.0357 10.7735 15.0061 10.5902 14.9504 10.4139C14.87 10.107 14.6908 9.93706 14.4458 9.93521C14.3249 9.92951 14.2054 9.96341 14.1062 10.0317C14.007 10.0998 13.9335 10.1986 13.8975 10.3122C13.8017 10.5889 13.7265 10.872 13.6726 11.1593C13.6323 11.3796 13.6044 11.6062 13.5773 11.8256C13.5282 12.2241 13.4776 12.6361 13.3507 13.0126C12.8569 14.4783 11.8861 15.3801 10.4653 15.6924C9.10306 15.9917 7.72692 15.8808 6.25788 15.3532C4.17353 14.6044 2.91576 12.7095 3.0537 10.5258L3.05686 10.4764C3.0792 10.2604 3.07644 10.0426 3.04865 9.82727C3.02757 9.75184 2.99001 9.68181 2.93859 9.62207C2.88716 9.56233 2.82309 9.51436 2.75087 9.48141C2.5731 9.40687 2.38682 9.49363 2.27652 9.70305C2.24341 9.76487 2.21866 9.83075 2.20289 9.89886C2.06058 10.545 1.91353 11.2131 2.06186 11.9198C2.39548 13.5043 3.10128 14.7088 4.22052 15.6014Z" fill="#FAF3E3"/>
<line x1="1.93908" y1="16.2333" x2="14.2333" y2="3.06092" stroke="#FF9F9F" stroke-width="2.5" stroke-linecap="round"/>
</svg>
