<svg width="14" height="20" viewBox="0 0 14 20" fill="none" xmlns="http://www.w3.org/2000/svg">
<path d="M10.4318 2.79973C10.1984 2.18581 9.87262 1.48469 9.22329 0.938218C8.24741 0.116947 7.04829 -0.161096 5.55771 0.0881571C3.85759 0.372573 2.66833 1.41868 2.11862 3.11341C1.67304 4.47739 1.51086 5.91551 1.64171 7.34233C1.69336 7.90657 1.73642 8.48148 1.77806 9.03758C1.8267 9.68606 1.87693 10.3568 1.94123 11.0154C1.99725 11.5591 2.09352 12.0982 2.2293 12.6282C2.45058 13.5076 2.99985 14.1271 3.86188 14.4692C4.74551 14.8304 5.69193 15.02 6.64886 15.0274C7.15284 15.0275 7.65516 14.9709 8.14607 14.8588C9.521 14.5454 10.3837 13.7679 10.7103 12.5479C10.8367 12.1042 10.9175 11.6491 10.9513 11.1896C10.9992 10.3859 11.0245 9.56836 11.0492 8.777C11.0592 8.45475 11.0697 8.13251 11.0806 7.81034C11.0813 7.79338 11.0761 7.77665 11.0659 7.76296C11.0559 7.74919 11.0412 7.7392 11.0247 7.73453C11.0247 7.64311 11.0242 7.55161 11.0233 7.46011C11.0218 7.2127 11.0203 6.95671 11.0261 6.7059C11.0605 5.22001 10.8662 3.94235 10.4318 2.79973ZM9.67015 7.56952L9.66963 8.17759C9.66963 8.19284 9.6743 8.20772 9.68303 8.22031C9.69176 8.23296 9.70411 8.24266 9.71857 8.24829C9.70118 8.53655 9.68469 8.82489 9.66918 9.11323C9.62618 9.88638 9.58184 10.6858 9.51106 11.4691C9.47748 11.841 9.35355 12.2158 9.23368 12.5781L9.2062 12.6614C9.09906 12.9871 8.85872 13.2353 8.47141 13.4215C7.82893 13.7305 7.09595 13.8499 6.29273 13.7769C5.68767 13.7216 5.07297 13.5696 4.49563 13.4186C3.92882 13.2705 3.5513 12.8691 3.40387 12.2582C3.30892 11.8953 3.24443 11.5253 3.21105 11.152C3.0878 9.38336 2.9604 7.48447 2.86372 5.58239C2.83389 5.06923 2.8658 4.55439 2.95881 4.04859C3.26082 2.47705 4.48727 1.35558 6.01075 1.25772C6.11285 1.2512 6.21638 1.24796 6.32058 1.24796C6.63521 1.24806 6.94914 1.27687 7.25836 1.33399C8.12958 1.49596 8.72327 1.99852 8.97505 2.78714C9.23406 3.59694 9.44066 4.4402 9.6301 5.23437C9.6685 5.43799 9.68175 5.64538 9.66963 5.85212C9.66857 5.91875 9.66744 5.9848 9.6679 6.05046C9.67136 6.55666 9.67076 7.0716 9.67015 7.56952Z" fill="#FAF3E3"/>
<path d="M2.22052 15.6014C2.91585 16.156 3.72465 16.4434 4.49513 16.6713C4.86956 16.7824 5.2574 16.8649 5.63251 16.9452C5.78211 16.9772 5.9315 17.0092 6.08028 17.0429V18.6516L6.05701 18.6553C6.01695 18.6629 5.97648 18.6682 5.93579 18.6712L5.88075 18.6739C5.0136 18.7169 4.117 18.7614 3.23502 18.8017C3.00221 18.8123 2.75578 18.8633 2.69396 19.1605C2.63862 19.427 2.78499 19.6458 3.076 19.7311C3.26513 19.7842 3.46102 19.8104 3.65772 19.809H3.66698C4.13628 19.8072 4.61319 19.8011 5.07443 19.7951C5.65178 19.7877 6.24901 19.7803 6.83539 19.7807C7.4796 19.7814 8.13485 19.7916 8.76859 19.8015C9.16765 19.8077 9.56617 19.8139 9.965 19.818C9.97855 19.818 9.99233 19.818 10.0063 19.818C10.1411 19.8213 10.2757 19.8069 10.4064 19.775C10.5247 19.7421 10.628 19.6706 10.6995 19.5723C10.7709 19.474 10.8063 19.3548 10.7999 19.2341C10.772 18.977 10.6336 18.8036 10.4101 18.7456C10.2547 18.7075 10.0951 18.688 9.93481 18.6877C9.45195 18.6818 8.9691 18.679 8.48624 18.6762C8.17001 18.6744 7.854 18.6722 7.53815 18.6698C7.4668 18.6692 7.39512 18.6624 7.31147 18.655L7.24454 18.6488L7.17594 17.0854L7.48299 17.0543C7.72804 17.0298 7.95083 17.0074 8.17362 16.9834C9.72083 16.8167 10.9852 16.0611 11.9314 14.7375C12.6359 13.7521 12.9775 12.5865 13.0382 10.9581C13.0357 10.7735 13.0061 10.5902 12.9504 10.4139C12.87 10.107 12.6908 9.93706 12.4458 9.93521C12.3249 9.92951 12.2054 9.96341 12.1062 10.0317C12.007 10.0998 11.9335 10.1986 11.8975 10.3122C11.8017 10.5889 11.7265 10.872 11.6726 11.1593C11.6323 11.3796 11.6044 11.6062 11.5773 11.8256C11.5282 12.2241 11.4776 12.6361 11.3507 13.0126C10.8569 14.4783 9.8861 15.3801 8.46531 15.6924C7.10306 15.9917 5.72692 15.8808 4.25788 15.3532C2.17353 14.6044 0.91576 12.7095 1.0537 10.5258L1.05686 10.4764C1.0792 10.2604 1.07644 10.0426 1.04865 9.82727C1.02757 9.75184 0.990014 9.68181 0.938589 9.62207C0.887156 9.56233 0.823089 9.51436 0.750868 9.48141C0.5731 9.40687 0.386821 9.49363 0.276516 9.70305C0.24341 9.76487 0.218662 9.83075 0.202887 9.89886C0.0605825 10.545 -0.0864687 11.2131 0.061859 11.9198C0.395483 13.5043 1.10128 14.7088 2.22052 15.6014Z" fill="#FAF3E3"/>
</svg>
