<svg width="21" height="18" viewBox="0 0 21 18" fill="none" xmlns="http://www.w3.org/2000/svg">
<path d="M0.795776 7.21958C0.595546 7.29216 0.402514 7.38378 0.219254 7.49323C0.161668 7.52223 0.111778 7.56484 0.0737816 7.61749C0.035785 7.67014 0.0107914 7.73128 0.00090021 7.79578C-0.00828809 7.91373 0.0529104 8.03178 0.18224 8.14648C0.289812 8.23571 0.405739 8.31402 0.52836 8.38027C0.62241 8.43485 0.718195 8.48643 0.813978 8.53792C0.951108 8.61169 1.09292 8.68757 1.22502 8.77183C3.01648 9.91026 4.64671 10.9196 6.43462 11.7352C6.4308 11.8001 6.42655 11.8649 6.42222 11.9295C6.41008 12.1118 6.3976 12.3003 6.39734 12.4864C6.39693 12.7674 6.39584 13.0485 6.39405 13.3298C6.38945 14.2219 6.38469 15.1443 6.41425 16.0514C6.42491 16.3784 6.54054 16.6123 6.73982 16.7098C6.94933 16.812 7.21865 16.7525 7.4982 16.5413C7.59902 16.4652 7.70234 16.3796 7.81399 16.2797C8.30374 15.8412 8.79281 15.4019 9.28655 14.9583L9.734 14.5563C9.73738 14.5588 9.74068 14.5614 9.74371 14.5641L10.1574 14.9255C10.6285 15.3366 11.1155 15.7617 11.5908 16.1842C11.7262 16.3043 11.8624 16.4237 11.9994 16.5425C12.4168 16.9065 12.8488 17.2829 13.2368 17.6862C13.4424 17.8997 13.6423 18 13.8825 18C13.9861 17.9985 14.089 17.983 14.1886 17.954C14.5391 17.8571 14.7652 17.6397 14.9218 17.2498C15.5122 15.7805 16.1164 14.2882 16.7006 12.8451C17.1803 11.6597 17.6595 10.4741 18.1384 9.28845C19.17 6.7431 20.0599 4.14092 20.804 1.49418C20.8941 1.18717 20.9575 0.872705 20.9934 0.554423C21.0054 0.480676 21.0009 0.405134 20.9804 0.333372C20.9598 0.261609 20.9235 0.195465 20.8744 0.139829C20.8152 0.085548 20.7447 0.045414 20.6682 0.0223838C20.5917 -0.000646418 20.5111 -0.00598539 20.4323 0.00673877C20.3279 0.0194571 20.225 0.0430373 20.1255 0.0771416L20.112 0.0812894C19.8882 0.149068 19.6638 0.214897 19.4394 0.280828C18.918 0.433903 18.3788 0.592185 17.8557 0.772636C14.0771 2.07681 10.245 3.49665 6.46565 4.99272C5.37562 5.42404 4.26574 5.85907 3.19236 6.27956C2.39304 6.59222 1.59418 6.90556 0.795776 7.21958ZM7.98865 11.2401C8.19669 11.0636 8.39389 10.8968 8.59629 10.7401C9.38979 10.1248 10.1841 9.51045 10.979 8.89727C12.541 7.69077 14.1564 6.44319 15.7362 5.20433C16.2193 4.82582 16.6778 4.40031 17.1212 3.98958C17.2735 3.84875 17.4257 3.70729 17.579 3.56777C17.7014 3.45651 17.906 3.27033 17.7926 2.90662C17.7888 2.89473 17.7828 2.88376 17.7747 2.87438C17.7667 2.865 17.7568 2.85744 17.7457 2.85214C17.7346 2.84688 17.7225 2.84397 17.7102 2.84361C17.698 2.84324 17.6858 2.84542 17.6744 2.85001C17.627 2.86946 17.5812 2.88663 17.5371 2.90283C17.4452 2.93472 17.3558 2.97329 17.2694 3.01824C14.3374 4.63499 11.787 6.75505 9.32062 8.80546C8.76282 9.26908 8.23708 9.74732 7.68102 10.2531C7.44489 10.468 7.20638 10.6837 6.96546 10.9004L1.46435 7.87413C1.49606 7.85427 1.52935 7.83713 1.56386 7.8229C2.4486 7.48458 3.33299 7.14505 4.21703 6.80427C6.38174 5.97155 8.62048 5.1104 10.8315 4.29125C12.8006 3.5617 14.8156 2.85494 16.7642 2.17142C17.4121 1.94421 18.06 1.71654 18.7076 1.48844C18.9585 1.39989 19.2118 1.33061 19.48 1.25737C19.5511 1.23801 19.6224 1.21839 19.6941 1.19849C18.6145 4.67327 17.2372 8.08151 15.9046 11.3794C15.2043 13.1122 14.4807 14.9028 13.8042 16.6924C11.9652 15.1888 10.1815 13.5994 8.45587 12.0615C8.22281 11.8536 7.98926 11.6456 7.75522 11.4375C7.83479 11.3701 7.91237 11.3045 7.98839 11.2401H7.98865ZM9.01073 13.8907L7.43311 15.2483L7.30802 12.2935L9.01073 13.8907Z" fill="#FAF3E3"/>
</svg>
