<svg width="91" height="29" viewBox="0 0 91 29" fill="none" xmlns="http://www.w3.org/2000/svg">
<path d="M2.018 21H6.1875V29H2L2.018 21Z" fill="#E66B9F"/>
<path d="M47.05 21H51.22L51.25 25H47L47.05 21Z" fill="white"/>
<path d="M10.92 5.712C12.32 5.712 13.5893 6.03867 14.728 6.692C15.8853 7.32667 16.7907 8.232 17.444 9.408C18.0973 10.5653 18.424 11.9187 18.424 13.468C18.424 15.0173 18.0973 16.38 17.444 17.556C16.7907 18.7133 15.8853 19.6187 14.728 20.272C13.5893 20.9067 12.32 21.224 10.92 21.224C8.848 21.224 7.27067 20.5707 6.188 19.264V21H2.016V0.223999H6.384V7.532C7.48533 6.31867 8.99733 5.712 10.92 5.712ZM10.164 17.64C11.284 17.64 12.1987 17.2667 12.908 16.52C13.636 15.7547 14 14.7373 14 13.468C14 12.1987 13.636 11.1907 12.908 10.444C12.1987 9.67867 11.284 9.296 10.164 9.296C9.044 9.296 8.12 9.67867 7.392 10.444C6.68267 11.1907 6.328 12.1987 6.328 13.468C6.328 14.7373 6.68267 15.7547 7.392 16.52C8.12 17.2667 9.044 17.64 10.164 17.64ZM21.348 0.223999H25.716V21H21.348V0.223999ZM35.8459 5.712C38.1792 5.712 39.9712 6.272 41.2219 7.392C42.4726 8.49333 43.0979 10.164 43.0979 12.404V21H39.0099V19.124C38.1886 20.524 36.6579 21.224 34.4179 21.224C33.2606 21.224 32.2526 21.028 31.3939 20.636C30.5539 20.244 29.9099 19.7027 29.4619 19.012C29.0139 18.3213 28.7899 17.5373 28.7899 16.66C28.7899 15.26 29.3126 14.1587 30.3579 13.356C31.4219 12.5533 33.0552 12.152 35.2579 12.152H38.7299C38.7299 11.2 38.4406 10.472 37.8619 9.968C37.2832 9.44533 36.4152 9.184 35.2579 9.184C34.4552 9.184 33.6619 9.31467 32.8779 9.576C32.1126 9.81867 31.4592 10.1547 30.9179 10.584L29.3499 7.532C30.1712 6.95333 31.1512 6.50533 32.2899 6.188C33.4472 5.87067 34.6326 5.712 35.8459 5.712ZM35.5099 18.284C36.2566 18.284 36.9192 18.116 37.4979 17.78C38.0766 17.4253 38.4872 16.912 38.7299 16.24V14.7H35.7339C33.9419 14.7 33.0459 15.288 33.0459 16.464C33.0459 17.024 33.2606 17.472 33.6899 17.808C34.1379 18.1253 34.7446 18.284 35.5099 18.284Z" fill="#E56B9F"/>
<path d="M55.9552 5.712C57.3552 5.712 58.6245 6.03867 59.7632 6.692C60.9205 7.32667 61.8258 8.232 62.4792 9.408C63.1325 10.5653 63.4592 11.9187 63.4592 13.468C63.4592 15.0173 63.1325 16.38 62.4792 17.556C61.8258 18.7133 60.9205 19.6187 59.7632 20.272C58.6245 20.9067 57.3552 21.224 55.9552 21.224C53.8832 21.224 52.3058 20.5707 51.2232 19.264V21H47.0512V0.223999H51.4192V7.532C52.5205 6.31867 54.0325 5.712 55.9552 5.712ZM55.1992 17.64C56.3192 17.64 57.2338 17.2667 57.9432 16.52C58.6712 15.7547 59.0352 14.7373 59.0352 13.468C59.0352 12.1987 58.6712 11.1907 57.9432 10.444C57.2338 9.67867 56.3192 9.296 55.1992 9.296C54.0792 9.296 53.1552 9.67867 52.4272 10.444C51.7178 11.1907 51.3632 12.1987 51.3632 13.468C51.3632 14.7373 51.7178 15.7547 52.4272 16.52C53.1552 17.2667 54.0792 17.64 55.1992 17.64ZM66.3832 0.223999H70.7512V21H66.3832V0.223999ZM80.8811 5.712C83.2144 5.712 85.0064 6.272 86.2571 7.392C87.5077 8.49333 88.1331 10.164 88.1331 12.404V21H84.0451V19.124C83.2237 20.524 81.6931 21.224 79.4531 21.224C78.2957 21.224 77.2877 21.028 76.4291 20.636C75.5891 20.244 74.9451 19.7027 74.4971 19.012C74.0491 18.3213 73.8251 17.5373 73.8251 16.66C73.8251 15.26 74.3477 14.1587 75.3931 13.356C76.4571 12.5533 78.0904 12.152 80.2931 12.152H83.7651C83.7651 11.2 83.4757 10.472 82.8971 9.968C82.3184 9.44533 81.4504 9.184 80.2931 9.184C79.4904 9.184 78.6971 9.31467 77.9131 9.576C77.1477 9.81867 76.4944 10.1547 75.9531 10.584L74.3851 7.532C75.2064 6.95333 76.1864 6.50533 77.3251 6.188C78.4824 5.87067 79.6677 5.712 80.8811 5.712ZM80.5451 18.284C81.2917 18.284 81.9544 18.116 82.5331 17.78C83.1117 17.4253 83.5224 16.912 83.7651 16.24V14.7H80.7691C78.9771 14.7 78.0811 15.288 78.0811 16.464C78.0811 17.024 78.2957 17.472 78.7251 17.808C79.1731 18.1253 79.7797 18.284 80.5451 18.284Z" fill="white"/>
</svg>
