<svg width="113" height="34" viewBox="0 0 113 34" fill="none" xmlns="http://www.w3.org/2000/svg">
<path d="M10.92 11.712C12.32 11.712 13.5893 12.0387 14.728 12.692C15.8853 13.3267 16.7907 14.232 17.444 15.408C18.0973 16.5653 18.424 17.9187 18.424 19.468C18.424 21.0173 18.0973 22.38 17.444 23.556C16.7907 24.7133 15.8853 25.6187 14.728 26.272C13.5893 26.9067 12.32 27.224 10.92 27.224C8.848 27.224 7.27067 26.5707 6.188 25.264V27H2.016V6.224H6.384V13.532C7.48533 12.3187 8.99733 11.712 10.92 11.712ZM10.164 23.64C11.284 23.64 12.1987 23.2667 12.908 22.52C13.636 21.7547 14 20.7373 14 19.468C14 18.1987 13.636 17.1907 12.908 16.444C12.1987 15.6787 11.284 15.296 10.164 15.296C9.044 15.296 8.12 15.6787 7.392 16.444C6.68267 17.1907 6.328 18.1987 6.328 19.468C6.328 20.7373 6.68267 21.7547 7.392 22.52C8.12 23.2667 9.044 23.64 10.164 23.64ZM21.348 6.224H25.716V27H21.348V6.224ZM35.8459 11.712C38.1792 11.712 39.9712 12.272 41.2219 13.392C42.4726 14.4933 43.0979 16.164 43.0979 18.404V27H39.0099V25.124C38.1886 26.524 36.6579 27.224 34.4179 27.224C33.2606 27.224 32.2526 27.028 31.3939 26.636C30.5539 26.244 29.9099 25.7027 29.4619 25.012C29.0139 24.3213 28.7899 23.5373 28.7899 22.66C28.7899 21.26 29.3126 20.1587 30.3579 19.356C31.4219 18.5533 33.0552 18.152 35.2579 18.152H38.7299C38.7299 17.2 38.4406 16.472 37.8619 15.968C37.2832 15.4453 36.4152 15.184 35.2579 15.184C34.4552 15.184 33.6619 15.3147 32.8779 15.576C32.1126 15.8187 31.4592 16.1547 30.9179 16.584L29.3499 13.532C30.1712 12.9533 31.1512 12.5053 32.2899 12.188C33.4472 11.8707 34.6326 11.712 35.8459 11.712ZM35.5099 24.284C36.2566 24.284 36.9192 24.116 37.4979 23.78C38.0766 23.4253 38.4872 22.912 38.7299 22.24V20.7H35.7339C33.9419 20.7 33.0459 21.288 33.0459 22.464C33.0459 23.024 33.2606 23.472 33.6899 23.808C34.1379 24.1253 34.7446 24.284 35.5099 24.284Z" fill="#E56B9F"/>
<path d="M55.9552 11.712C57.3552 11.712 58.6245 12.0387 59.7632 12.692C60.9205 13.3267 61.8258 14.232 62.4792 15.408C63.1325 16.5653 63.4592 17.9187 63.4592 19.468C63.4592 21.0173 63.1325 22.38 62.4792 23.556C61.8258 24.7133 60.9205 25.6187 59.7632 26.272C58.6245 26.9067 57.3552 27.224 55.9552 27.224C53.8832 27.224 52.3058 26.5707 51.2232 25.264V27H47.0512V6.224H51.4192V13.532C52.5205 12.3187 54.0325 11.712 55.9552 11.712ZM55.1992 23.64C56.3192 23.64 57.2338 23.2667 57.9432 22.52C58.6712 21.7547 59.0352 20.7373 59.0352 19.468C59.0352 18.1987 58.6712 17.1907 57.9432 16.444C57.2338 15.6787 56.3192 15.296 55.1992 15.296C54.0792 15.296 53.1552 15.6787 52.4272 16.444C51.7178 17.1907 51.3632 18.1987 51.3632 19.468C51.3632 20.7373 51.7178 21.7547 52.4272 22.52C53.1552 23.2667 54.0792 23.64 55.1992 23.64ZM66.3832 6.224H70.7512V27H66.3832V6.224ZM80.8811 11.712C83.2144 11.712 85.0064 12.272 86.2571 13.392C87.5077 14.4933 88.1331 16.164 88.1331 18.404V27H84.0451V25.124C83.2237 26.524 81.6931 27.224 79.4531 27.224C78.2957 27.224 77.2877 27.028 76.4291 26.636C75.5891 26.244 74.9451 25.7027 74.4971 25.012C74.0491 24.3213 73.8251 23.5373 73.8251 22.66C73.8251 21.26 74.3477 20.1587 75.3931 19.356C76.4571 18.5533 78.0904 18.152 80.2931 18.152H83.7651C83.7651 17.2 83.4757 16.472 82.8971 15.968C82.3184 15.4453 81.4504 15.184 80.2931 15.184C79.4904 15.184 78.6971 15.3147 77.9131 15.576C77.1477 15.8187 76.4944 16.1547 75.9531 16.584L74.3851 13.532C75.2064 12.9533 76.1864 12.5053 77.3251 12.188C78.4824 11.8707 79.6677 11.712 80.8811 11.712ZM80.5451 24.284C81.2917 24.284 81.9544 24.116 82.5331 23.78C83.1117 23.4253 83.5224 22.912 83.7651 22.24V20.7H80.7691C78.9771 20.7 78.0811 21.288 78.0811 22.464C78.0811 23.024 78.2957 23.472 78.7251 23.808C79.1731 24.1253 79.7797 24.284 80.5451 24.284ZM101.242 11.712C103.109 11.712 104.612 12.272 105.75 13.392C106.908 14.512 107.486 16.1733 107.486 18.376V27H103.118V19.048C103.118 17.8533 102.857 16.9667 102.334 16.388C101.812 15.7907 101.056 15.492 100.066 15.492C98.965 15.492 98.0876 15.8373 97.4343 16.528C96.781 17.2 96.4543 18.208 96.4543 19.552V27H92.0863V6.224H96.4543V13.504C97.033 12.9253 97.733 12.4867 98.5543 12.188C99.3756 11.8707 100.272 11.712 101.242 11.712Z" fill="white"/>
<path d="M2.02344 25H6.1875V33H2L2.02344 25Z" fill="#E66B9F"/>
<path d="M47.0456 26.0001H51.2263V30.0001H47L47.0456 26.0001Z" fill="white"/>
</svg>
