<svg width="944" height="1018" viewBox="0 0 944 1018" fill="none" xmlns="http://www.w3.org/2000/svg">
<circle cx="422.5" cy="481.5" r="422.5" fill="url(#paint0_linear_105_2)" fill-opacity="0.2"/>
<circle cx="422.5" cy="481.5" r="340.5" fill="url(#paint1_linear_105_2)" fill-opacity="0.2" style="mix-blend-mode:color-dodge"/>
<circle cx="422.5" cy="481.5" r="254.5" fill="url(#paint2_linear_105_2)" fill-opacity="0.2" style="mix-blend-mode:color-dodge"/>
<circle cx="614.212" cy="251.968" r="8" transform="rotate(-99.1613 614.212 251.968)" fill="#C4C4C4"/>
<circle cx="543.995" cy="36.3974" r="8" transform="rotate(-99.1613 543.995 36.3974)" fill="#C4C4C4"/>
<circle cx="598.642" cy="133.435" r="2.5" transform="rotate(-99.1613 598.642 133.435)" fill="#C4C4C4"/>
<circle cx="642.876" cy="131.365" r="2.5" transform="rotate(-99.1613 642.876 131.365)" fill="#C4C4C4"/>
<circle cx="574.564" cy="210.248" r="2.5" transform="rotate(-99.1613 574.564 210.248)" fill="#C4C4C4"/>
<circle cx="705.548" cy="281.3" r="1.5" transform="rotate(-99.1613 705.548 281.3)" fill="#C4C4C4"/>
<circle cx="609.98" cy="71.8437" r="1.5" transform="rotate(-99.1613 609.98 71.8437)" fill="#C4C4C4"/>
<circle cx="748.606" cy="190.283" r="1.5" transform="rotate(-99.1613 748.606 190.283)" fill="#C4C4C4"/>
<circle cx="663.894" cy="198.88" r="3.5" transform="rotate(-99.1613 663.894 198.88)" fill="#C4C4C4"/>
<circle cx="670.934" cy="63.5329" r="4" transform="rotate(-99.1613 670.934 63.5329)" fill="#C4C4C4"/>
<circle cx="502.592" cy="187.922" r="4" transform="rotate(-99.1613 502.592 187.922)" fill="#C4C4C4"/>
<circle cx="377.405" cy="499.261" r="5.35471" transform="rotate(-99.1613 377.405 499.261)" fill="#C4C4C4"/>
<circle cx="330.406" cy="354.972" r="5.35471" transform="rotate(-99.1613 330.406 354.972)" fill="#C4C4C4"/>
<circle cx="366.983" cy="419.923" r="1.67335" transform="rotate(-99.1613 366.983 419.923)" fill="#C4C4C4"/>
<circle cx="396.591" cy="418.538" r="1.67335" transform="rotate(-99.1613 396.591 418.538)" fill="#C4C4C4"/>
<circle cx="350.867" cy="471.337" r="1.67335" transform="rotate(-99.1613 350.867 471.337)" fill="#C4C4C4"/>
<circle cx="438.539" cy="518.895" r="1.00401" transform="rotate(-99.1613 438.539 518.895)" fill="#C4C4C4"/>
<circle cx="374.572" cy="378.697" r="1.00401" transform="rotate(-99.1613 374.572 378.697)" fill="#C4C4C4"/>
<circle cx="467.36" cy="457.974" r="1.00401" transform="rotate(-99.1613 467.36 457.974)" fill="#C4C4C4"/>
<circle cx="410.659" cy="463.728" r="2.34269" transform="rotate(-99.1613 410.659 463.728)" fill="#C4C4C4"/>
<circle cx="415.371" cy="373.135" r="2.67736" transform="rotate(-99.1613 415.371 373.135)" fill="#C4C4C4"/>
<circle cx="302.693" cy="456.393" r="2.67736" transform="rotate(-99.1613 302.693 456.393)" fill="#C4C4C4"/>
<circle cx="843.405" cy="848.261" r="5.35471" transform="rotate(-99.1613 843.405 848.261)" fill="#C4C4C4"/>
<circle cx="796.406" cy="703.972" r="5.35471" transform="rotate(-99.1613 796.406 703.972)" fill="#C4C4C4"/>
<circle cx="832.983" cy="768.923" r="1.67335" transform="rotate(-99.1613 832.983 768.923)" fill="#C4C4C4"/>
<circle cx="862.591" cy="767.538" r="1.67335" transform="rotate(-99.1613 862.591 767.538)" fill="#C4C4C4"/>
<circle cx="816.867" cy="820.337" r="1.67335" transform="rotate(-99.1613 816.867 820.337)" fill="#C4C4C4"/>
<circle cx="904.539" cy="867.895" r="1.00401" transform="rotate(-99.1613 904.539 867.895)" fill="#C4C4C4"/>
<circle cx="840.572" cy="727.697" r="1.00401" transform="rotate(-99.1613 840.572 727.697)" fill="#C4C4C4"/>
<circle cx="933.36" cy="806.974" r="1.00401" transform="rotate(-99.1613 933.36 806.974)" fill="#C4C4C4"/>
<circle cx="876.659" cy="812.728" r="2.34269" transform="rotate(-99.1613 876.659 812.728)" fill="#C4C4C4"/>
<circle cx="881.371" cy="722.135" r="2.67736" transform="rotate(-99.1613 881.371 722.135)" fill="#C4C4C4"/>
<circle cx="768.693" cy="805.393" r="2.67736" transform="rotate(-99.1613 768.693 805.393)" fill="#C4C4C4"/>
<circle cx="485.405" cy="842.261" r="5.35471" transform="rotate(-99.1613 485.405 842.261)" fill="#C4C4C4"/>
<circle cx="438.406" cy="697.972" r="5.35471" transform="rotate(-99.1613 438.406 697.972)" fill="#C4C4C4"/>
<circle cx="474.983" cy="762.923" r="1.67335" transform="rotate(-99.1613 474.983 762.923)" fill="#C4C4C4"/>
<circle cx="504.591" cy="761.538" r="1.67335" transform="rotate(-99.1613 504.591 761.538)" fill="#C4C4C4"/>
<circle cx="458.867" cy="814.337" r="1.67335" transform="rotate(-99.1613 458.867 814.337)" fill="#C4C4C4"/>
<circle cx="546.539" cy="861.895" r="1.00401" transform="rotate(-99.1613 546.539 861.895)" fill="#C4C4C4"/>
<circle cx="482.572" cy="721.697" r="1.00401" transform="rotate(-99.1613 482.572 721.697)" fill="#C4C4C4"/>
<circle cx="575.36" cy="800.974" r="1.00401" transform="rotate(-99.1613 575.36 800.974)" fill="#C4C4C4"/>
<circle cx="518.659" cy="806.728" r="2.34269" transform="rotate(-99.1613 518.659 806.728)" fill="#C4C4C4"/>
<circle cx="523.371" cy="716.135" r="2.67736" transform="rotate(-99.1613 523.371 716.135)" fill="#C4C4C4"/>
<circle cx="410.693" cy="799.393" r="2.67736" transform="rotate(-99.1613 410.693 799.393)" fill="#C4C4C4"/>
<circle cx="806.405" cy="412.261" r="5.35471" transform="rotate(-99.1613 806.405 412.261)" fill="#C4C4C4"/>
<circle cx="759.406" cy="267.972" r="5.35471" transform="rotate(-99.1613 759.406 267.972)" fill="#C4C4C4"/>
<circle cx="795.983" cy="332.923" r="1.67335" transform="rotate(-99.1613 795.983 332.923)" fill="#C4C4C4"/>
<circle cx="825.591" cy="331.538" r="1.67335" transform="rotate(-99.1613 825.591 331.538)" fill="#C4C4C4"/>
<circle cx="779.867" cy="384.337" r="1.67335" transform="rotate(-99.1613 779.867 384.337)" fill="#C4C4C4"/>
<circle cx="867.539" cy="431.895" r="1.00401" transform="rotate(-99.1613 867.539 431.895)" fill="#C4C4C4"/>
<circle cx="803.572" cy="291.697" r="1.00401" transform="rotate(-99.1613 803.572 291.697)" fill="#C4C4C4"/>
<circle cx="896.36" cy="370.974" r="1.00401" transform="rotate(-99.1613 896.36 370.974)" fill="#C4C4C4"/>
<circle cx="839.659" cy="376.728" r="2.34269" transform="rotate(-99.1613 839.659 376.728)" fill="#C4C4C4"/>
<circle cx="844.371" cy="286.135" r="2.67736" transform="rotate(-99.1613 844.371 286.135)" fill="#C4C4C4"/>
<circle cx="731.693" cy="369.393" r="2.67736" transform="rotate(-99.1613 731.693 369.393)" fill="#C4C4C4"/>
<circle cx="50.096" cy="598.75" r="3.9759" transform="rotate(-39.4159 50.096 598.75)" fill="#C4C4C4"/>
<circle cx="125.057" cy="514.626" r="3.9759" transform="rotate(-39.4159 125.057 514.626)" fill="#C4C4C4"/>
<circle cx="97.0828" cy="562.385" r="1.24247" transform="rotate(-39.4159 97.0828 562.385)" fill="#C4C4C4"/>
<circle cx="109.047" cy="580.856" r="1.24247" transform="rotate(-39.4159 109.047 580.856)" fill="#C4C4C4"/>
<circle cx="58.078" cy="571.283" r="1.24247" transform="rotate(-39.4159 58.078 571.283)" fill="#C4C4C4"/>
<circle cx="60.3746" cy="645.305" r="0.745481" transform="rotate(-39.4159 60.3746 645.305)" fill="#C4C4C4"/>
<circle cx="126.363" cy="551.83" r="0.745481" transform="rotate(-39.4159 126.363 551.83)" fill="#C4C4C4"/>
<circle cx="110.229" cy="640.999" r="0.745481" transform="rotate(-39.4159 110.229 640.999)" fill="#C4C4C4"/>
<circle cx="85.3266" cy="606.785" r="1.73946" transform="rotate(-39.4159 85.3266 606.785)" fill="#C4C4C4"/>
<circle cx="145.193" cy="575.916" r="1.98795" transform="rotate(-39.4159 145.193 575.916)" fill="#C4C4C4"/>
<circle cx="49.6401" cy="534.795" r="1.98795" transform="rotate(-39.4159 49.6401 534.795)" fill="#C4C4C4"/>
<circle cx="516.096" cy="947.75" r="3.9759" transform="rotate(-39.4159 516.096 947.75)" fill="#C4C4C4"/>
<circle cx="591.057" cy="863.626" r="3.9759" transform="rotate(-39.4159 591.057 863.626)" fill="#C4C4C4"/>
<circle cx="563.083" cy="911.385" r="1.24247" transform="rotate(-39.4159 563.083 911.385)" fill="#C4C4C4"/>
<circle cx="575.047" cy="929.856" r="1.24247" transform="rotate(-39.4159 575.047 929.856)" fill="#C4C4C4"/>
<circle cx="524.078" cy="920.283" r="1.24247" transform="rotate(-39.4159 524.078 920.283)" fill="#C4C4C4"/>
<circle cx="526.375" cy="994.305" r="0.745481" transform="rotate(-39.4159 526.375 994.305)" fill="#C4C4C4"/>
<circle cx="592.363" cy="900.83" r="0.745481" transform="rotate(-39.4159 592.363 900.83)" fill="#C4C4C4"/>
<circle cx="576.229" cy="989.999" r="0.745481" transform="rotate(-39.4159 576.229 989.999)" fill="#C4C4C4"/>
<circle cx="551.327" cy="955.785" r="1.73946" transform="rotate(-39.4159 551.327 955.785)" fill="#C4C4C4"/>
<circle cx="611.193" cy="924.916" r="1.98795" transform="rotate(-39.4159 611.193 924.916)" fill="#C4C4C4"/>
<circle cx="515.64" cy="883.795" r="1.98795" transform="rotate(-39.4159 515.64 883.795)" fill="#C4C4C4"/>
<circle cx="158.096" cy="941.75" r="3.9759" transform="rotate(-39.4159 158.096 941.75)" fill="#C4C4C4"/>
<circle cx="233.057" cy="857.626" r="3.9759" transform="rotate(-39.4159 233.057 857.626)" fill="#C4C4C4"/>
<circle cx="205.083" cy="905.385" r="1.24247" transform="rotate(-39.4159 205.083 905.385)" fill="#C4C4C4"/>
<circle cx="217.047" cy="923.856" r="1.24247" transform="rotate(-39.4159 217.047 923.856)" fill="#C4C4C4"/>
<circle cx="166.078" cy="914.283" r="1.24247" transform="rotate(-39.4159 166.078 914.283)" fill="#C4C4C4"/>
<circle cx="168.375" cy="988.305" r="0.745481" transform="rotate(-39.4159 168.375 988.305)" fill="#C4C4C4"/>
<circle cx="234.363" cy="894.83" r="0.745481" transform="rotate(-39.4159 234.363 894.83)" fill="#C4C4C4"/>
<circle cx="218.229" cy="983.999" r="0.745481" transform="rotate(-39.4159 218.229 983.999)" fill="#C4C4C4"/>
<circle cx="193.327" cy="949.785" r="1.73946" transform="rotate(-39.4159 193.327 949.785)" fill="#C4C4C4"/>
<circle cx="253.193" cy="918.916" r="1.98795" transform="rotate(-39.4159 253.193 918.916)" fill="#C4C4C4"/>
<circle cx="157.64" cy="877.795" r="1.98795" transform="rotate(-39.4159 157.64 877.795)" fill="#C4C4C4"/>
<circle cx="479.096" cy="511.75" r="3.9759" transform="rotate(-39.4159 479.096 511.75)" fill="#C4C4C4"/>
<circle cx="554.057" cy="427.626" r="3.9759" transform="rotate(-39.4159 554.057 427.626)" fill="#C4C4C4"/>
<circle cx="526.083" cy="475.385" r="1.24247" transform="rotate(-39.4159 526.083 475.385)" fill="#C4C4C4"/>
<circle cx="538.047" cy="493.856" r="1.24247" transform="rotate(-39.4159 538.047 493.856)" fill="#C4C4C4"/>
<circle cx="487.078" cy="484.283" r="1.24247" transform="rotate(-39.4159 487.078 484.283)" fill="#C4C4C4"/>
<circle cx="489.375" cy="558.305" r="0.745481" transform="rotate(-39.4159 489.375 558.305)" fill="#C4C4C4"/>
<circle cx="555.363" cy="464.83" r="0.745481" transform="rotate(-39.4159 555.363 464.83)" fill="#C4C4C4"/>
<circle cx="539.229" cy="553.999" r="0.745481" transform="rotate(-39.4159 539.229 553.999)" fill="#C4C4C4"/>
<circle cx="514.327" cy="519.785" r="1.73946" transform="rotate(-39.4159 514.327 519.785)" fill="#C4C4C4"/>
<circle cx="574.193" cy="488.916" r="1.98795" transform="rotate(-39.4159 574.193 488.916)" fill="#C4C4C4"/>
<circle cx="478.64" cy="447.795" r="1.98795" transform="rotate(-39.4159 478.64 447.795)" fill="#C4C4C4"/>
<circle cx="211.096" cy="458.75" r="3.9759" transform="rotate(-39.4159 211.096 458.75)" fill="#C4C4C4"/>
<circle cx="286.057" cy="374.626" r="3.9759" transform="rotate(-39.4159 286.057 374.626)" fill="#C4C4C4"/>
<circle cx="258.083" cy="422.385" r="1.24247" transform="rotate(-39.4159 258.083 422.385)" fill="#C4C4C4"/>
<circle cx="270.047" cy="440.856" r="1.24247" transform="rotate(-39.4159 270.047 440.856)" fill="#C4C4C4"/>
<circle cx="219.078" cy="431.283" r="1.24247" transform="rotate(-39.4159 219.078 431.283)" fill="#C4C4C4"/>
<circle cx="221.375" cy="505.305" r="0.745481" transform="rotate(-39.4159 221.375 505.305)" fill="#C4C4C4"/>
<circle cx="287.363" cy="411.83" r="0.745481" transform="rotate(-39.4159 287.363 411.83)" fill="#C4C4C4"/>
<circle cx="271.229" cy="500.999" r="0.745481" transform="rotate(-39.4159 271.229 500.999)" fill="#C4C4C4"/>
<circle cx="246.327" cy="466.785" r="1.73946" transform="rotate(-39.4159 246.327 466.785)" fill="#C4C4C4"/>
<circle cx="306.193" cy="435.916" r="1.98795" transform="rotate(-39.4159 306.193 435.916)" fill="#C4C4C4"/>
<circle cx="210.64" cy="394.795" r="1.98795" transform="rotate(-39.4159 210.64 394.795)" fill="#C4C4C4"/>
<circle cx="677.096" cy="807.75" r="3.9759" transform="rotate(-39.4159 677.096 807.75)" fill="#C4C4C4"/>
<circle cx="752.057" cy="723.626" r="3.9759" transform="rotate(-39.4159 752.057 723.626)" fill="#C4C4C4"/>
<circle cx="724.083" cy="771.385" r="1.24247" transform="rotate(-39.4159 724.083 771.385)" fill="#C4C4C4"/>
<circle cx="736.047" cy="789.856" r="1.24247" transform="rotate(-39.4159 736.047 789.856)" fill="#C4C4C4"/>
<circle cx="685.078" cy="780.283" r="1.24247" transform="rotate(-39.4159 685.078 780.283)" fill="#C4C4C4"/>
<circle cx="687.375" cy="854.305" r="0.745481" transform="rotate(-39.4159 687.375 854.305)" fill="#C4C4C4"/>
<circle cx="753.363" cy="760.83" r="0.745481" transform="rotate(-39.4159 753.363 760.83)" fill="#C4C4C4"/>
<circle cx="737.229" cy="849.999" r="0.745481" transform="rotate(-39.4159 737.229 849.999)" fill="#C4C4C4"/>
<circle cx="712.327" cy="815.785" r="1.73946" transform="rotate(-39.4159 712.327 815.785)" fill="#C4C4C4"/>
<circle cx="772.193" cy="784.916" r="1.98795" transform="rotate(-39.4159 772.193 784.916)" fill="#C4C4C4"/>
<circle cx="676.64" cy="743.795" r="1.98795" transform="rotate(-39.4159 676.64 743.795)" fill="#C4C4C4"/>
<circle cx="319.096" cy="801.75" r="3.9759" transform="rotate(-39.4159 319.096 801.75)" fill="#C4C4C4"/>
<circle cx="394.057" cy="717.626" r="3.9759" transform="rotate(-39.4159 394.057 717.626)" fill="#C4C4C4"/>
<circle cx="366.083" cy="765.385" r="1.24247" transform="rotate(-39.4159 366.083 765.385)" fill="#C4C4C4"/>
<circle cx="378.047" cy="783.856" r="1.24247" transform="rotate(-39.4159 378.047 783.856)" fill="#C4C4C4"/>
<circle cx="327.078" cy="774.283" r="1.24247" transform="rotate(-39.4159 327.078 774.283)" fill="#C4C4C4"/>
<circle cx="329.375" cy="848.305" r="0.745481" transform="rotate(-39.4159 329.375 848.305)" fill="#C4C4C4"/>
<circle cx="395.363" cy="754.83" r="0.745481" transform="rotate(-39.4159 395.363 754.83)" fill="#C4C4C4"/>
<circle cx="379.229" cy="843.999" r="0.745481" transform="rotate(-39.4159 379.229 843.999)" fill="#C4C4C4"/>
<circle cx="354.327" cy="809.785" r="1.73946" transform="rotate(-39.4159 354.327 809.785)" fill="#C4C4C4"/>
<circle cx="414.193" cy="778.916" r="1.98795" transform="rotate(-39.4159 414.193 778.916)" fill="#C4C4C4"/>
<circle cx="318.64" cy="737.795" r="1.98795" transform="rotate(-39.4159 318.64 737.795)" fill="#C4C4C4"/>
<circle cx="640.096" cy="371.75" r="3.9759" transform="rotate(-39.4159 640.096 371.75)" fill="#C4C4C4"/>
<circle cx="715.057" cy="287.626" r="3.9759" transform="rotate(-39.4159 715.057 287.626)" fill="#C4C4C4"/>
<circle cx="687.083" cy="335.385" r="1.24247" transform="rotate(-39.4159 687.083 335.385)" fill="#C4C4C4"/>
<circle cx="699.047" cy="353.856" r="1.24247" transform="rotate(-39.4159 699.047 353.856)" fill="#C4C4C4"/>
<circle cx="648.078" cy="344.283" r="1.24247" transform="rotate(-39.4159 648.078 344.283)" fill="#C4C4C4"/>
<circle cx="650.375" cy="418.305" r="0.745481" transform="rotate(-39.4159 650.375 418.305)" fill="#C4C4C4"/>
<circle cx="716.363" cy="324.83" r="0.745481" transform="rotate(-39.4159 716.363 324.83)" fill="#C4C4C4"/>
<circle cx="700.229" cy="413.999" r="0.745481" transform="rotate(-39.4159 700.229 413.999)" fill="#C4C4C4"/>
<circle cx="675.327" cy="379.785" r="1.73946" transform="rotate(-39.4159 675.327 379.785)" fill="#C4C4C4"/>
<circle cx="735.193" cy="348.916" r="1.98795" transform="rotate(-39.4159 735.193 348.916)" fill="#C4C4C4"/>
<circle cx="639.64" cy="307.795" r="1.98795" transform="rotate(-39.4159 639.64 307.795)" fill="#C4C4C4"/>
<circle cx="185.212" cy="338.968" r="8" transform="rotate(-99.1613 185.212 338.968)" fill="#C4C4C4"/>
<circle cx="114.995" cy="123.397" r="8" transform="rotate(-99.1613 114.995 123.397)" fill="#C4C4C4"/>
<circle cx="169.642" cy="220.435" r="2.5" transform="rotate(-99.1613 169.642 220.435)" fill="#C4C4C4"/>
<circle cx="213.876" cy="218.365" r="2.5" transform="rotate(-99.1613 213.876 218.365)" fill="#C4C4C4"/>
<circle cx="145.564" cy="297.248" r="2.5" transform="rotate(-99.1613 145.564 297.248)" fill="#C4C4C4"/>
<circle cx="276.548" cy="368.3" r="1.5" transform="rotate(-99.1613 276.548 368.3)" fill="#C4C4C4"/>
<circle cx="180.98" cy="158.844" r="1.5" transform="rotate(-99.1613 180.98 158.844)" fill="#C4C4C4"/>
<circle cx="319.606" cy="277.283" r="1.5" transform="rotate(-99.1613 319.606 277.283)" fill="#C4C4C4"/>
<circle cx="234.894" cy="285.88" r="3.5" transform="rotate(-99.1613 234.894 285.88)" fill="#C4C4C4"/>
<circle cx="241.934" cy="150.533" r="4" transform="rotate(-99.1613 241.934 150.533)" fill="#C4C4C4"/>
<circle cx="73.5915" cy="274.922" r="4" transform="rotate(-99.1613 73.5915 274.922)" fill="#C4C4C4"/>
<circle cx="651.212" cy="687.967" r="8" transform="rotate(-99.1613 651.212 687.967)" fill="#C4C4C4"/>
<circle cx="580.995" cy="472.397" r="8" transform="rotate(-99.1613 580.995 472.397)" fill="#C4C4C4"/>
<circle cx="635.642" cy="569.435" r="2.5" transform="rotate(-99.1613 635.642 569.435)" fill="#C4C4C4"/>
<circle cx="679.876" cy="567.365" r="2.5" transform="rotate(-99.1613 679.876 567.365)" fill="#C4C4C4"/>
<circle cx="611.564" cy="646.248" r="2.5" transform="rotate(-99.1613 611.564 646.248)" fill="#C4C4C4"/>
<circle cx="742.548" cy="717.3" r="1.5" transform="rotate(-99.1613 742.548 717.3)" fill="#C4C4C4"/>
<circle cx="646.98" cy="507.844" r="1.5" transform="rotate(-99.1613 646.98 507.844)" fill="#C4C4C4"/>
<circle cx="785.606" cy="626.283" r="1.5" transform="rotate(-99.1613 785.606 626.283)" fill="#C4C4C4"/>
<circle cx="700.894" cy="634.88" r="3.5" transform="rotate(-99.1613 700.894 634.88)" fill="#C4C4C4"/>
<circle cx="707.934" cy="499.533" r="4" transform="rotate(-99.1613 707.934 499.533)" fill="#C4C4C4"/>
<circle cx="539.592" cy="623.922" r="4" transform="rotate(-99.1613 539.592 623.922)" fill="#C4C4C4"/>
<circle cx="293.212" cy="681.967" r="8" transform="rotate(-99.1613 293.212 681.967)" fill="#C4C4C4"/>
<circle cx="222.995" cy="466.397" r="8" transform="rotate(-99.1613 222.995 466.397)" fill="#C4C4C4"/>
<circle cx="277.642" cy="563.435" r="2.5" transform="rotate(-99.1613 277.642 563.435)" fill="#C4C4C4"/>
<circle cx="321.876" cy="561.365" r="2.5" transform="rotate(-99.1613 321.876 561.365)" fill="#C4C4C4"/>
<circle cx="253.564" cy="640.248" r="2.5" transform="rotate(-99.1613 253.564 640.248)" fill="#C4C4C4"/>
<circle cx="384.548" cy="711.3" r="1.5" transform="rotate(-99.1613 384.548 711.3)" fill="#C4C4C4"/>
<circle cx="288.98" cy="501.844" r="1.5" transform="rotate(-99.1613 288.98 501.844)" fill="#C4C4C4"/>
<circle cx="427.606" cy="620.283" r="1.5" transform="rotate(-99.1613 427.606 620.283)" fill="#C4C4C4"/>
<circle cx="342.894" cy="628.88" r="3.5" transform="rotate(-99.1613 342.894 628.88)" fill="#C4C4C4"/>
<circle cx="349.934" cy="493.533" r="4" transform="rotate(-99.1613 349.934 493.533)" fill="#C4C4C4"/>
<circle cx="181.592" cy="617.922" r="4" transform="rotate(-99.1613 181.592 617.922)" fill="#C4C4C4"/>
<defs>
<linearGradient id="paint0_linear_105_2" x1="589.643" y1="59" x2="196.548" y2="837.452" gradientUnits="userSpaceOnUse">
<stop stop-color="#ABB8FF"/>
<stop offset="1" stop-color="#352AFF"/>
</linearGradient>
<linearGradient id="paint1_linear_105_2" x1="557.203" y1="141" x2="240.401" y2="768.368" gradientUnits="userSpaceOnUse">
<stop stop-color="#ABB8FF"/>
<stop offset="1" stop-color="#352AFF"/>
</linearGradient>
<linearGradient id="paint2_linear_105_2" x1="523.181" y1="227" x2="286.394" y2="695.914" gradientUnits="userSpaceOnUse">
<stop stop-color="#ABB8FF"/>
<stop offset="1" stop-color="#352AFF"/>
</linearGradient>
</defs>
</svg>
