<svg width="19" height="14" viewBox="0 0 19 14" fill="none" xmlns="http://www.w3.org/2000/svg">
<path d="M18.7672 0.503331C18.6531 0.364707 18.2647 0.419821 18.0754 0.468422C17.9196 0.525137 17.7789 0.617069 17.6644 0.737054C17.636 0.762238 17.6078 0.787314 17.5798 0.811173C13.5002 4.26781 9.54284 7.67904 5.97542 11.4063C5.90384 11.481 5.82839 11.5513 5.7239 11.6493C5.66955 11.7 5.6077 11.7577 5.53491 11.8267C5.08789 11.3358 4.06583 10.1775 3.24193 9.244C2.80927 8.7539 2.43185 8.32621 2.22231 8.09116C2.10638 7.956 1.99775 7.81474 1.8969 7.668C1.82853 7.57223 1.75772 7.47304 1.6836 7.37904C1.54785 7.20662 1.29491 6.88629 0.937358 7.13283C0.634375 7.3427 0.74958 7.64093 0.882791 7.87853C0.898365 7.90592 0.91361 7.93375 0.928743 7.96159C0.982778 8.06746 1.0456 8.16863 1.11653 8.26402C1.75022 9.06505 3.75181 11.5239 4.41356 12.2522C4.94574 12.8376 5.28881 13.0713 5.63686 13.0843C5.64636 13.0843 5.65597 13.0843 5.66547 13.0843C6.06312 13.0843 6.46894 12.7765 6.99095 12.2823C9.73835 9.67965 12.2197 7.35596 14.5768 5.17918C15.329 4.4843 16.116 3.80157 16.8772 3.14115C17.3475 2.73312 17.8337 2.31117 18.307 1.89055C18.5375 1.68599 18.752 1.48186 18.8451 1.23786C18.9238 1.03152 18.9073 0.673324 18.7672 0.503331Z" fill="#E66B9F"/>
</svg>
